<svg width="22" height="25" viewBox="0 0 22 25" fill="none" xmlns="http://www.w3.org/2000/svg">
<path d="M0 21.7764V2.55859C0.000225697 1.14562 1.14562 0.000225697 2.55859 0H15.9443C16.2953 0 16.6327 0.139421 16.8809 0.387695L21.2021 4.70996C21.4503 4.9582 21.5898 5.2945 21.5898 5.64551V21.7764C21.5898 23.1896 20.4444 24.3359 19.0312 24.3359H2.55859C1.14547 24.3357 0 23.1895 0 21.7764ZM1 21.7764C1 22.6372 1.69777 23.3357 2.55859 23.3359H19.0312C19.8922 23.3359 20.5898 22.6373 20.5898 21.7764V5.64551C20.5898 5.55968 20.5558 5.47768 20.4951 5.41699L16.1738 1.09473H16.1729C16.1122 1.03422 16.03 1 15.9443 1H2.55859C1.6979 1.00023 1.00023 1.6979 1 2.55859V21.7764Z" fill="black"/>
<path d="M15.0994 5.16699V0.5C15.0994 0.223858 15.3233 0 15.5994 0C15.8756 0 16.0994 0.223858 16.0994 0.5V5.16699C16.0994 5.34561 16.2441 5.49004 16.4227 5.49023H21.0897C21.3656 5.49023 21.5894 5.7143 21.5897 5.99023C21.5897 6.26638 21.3658 6.49023 21.0897 6.49023H16.4227C15.6918 6.49004 15.0994 5.89786 15.0994 5.16699Z" fill="black"/>
<path d="M10.8 15C12.468 15 13.9222 15.9086 14.6994 17.2568L13.9611 17.9951C13.3984 16.8152 12.1943 16 10.8 16C9.40552 16 8.20051 16.815 7.63788 17.9951L6.8996 17.2568C7.67679 15.9084 9.13181 15 10.8 15Z" fill="black"/>
<path d="M8.04218 10.207L6.62811 11.6201L8.04315 13.0352L7.33514 13.7422L5.92108 12.3281L4.50702 13.7422L3.79999 13.0352L5.21405 11.6211L3.79999 10.207L4.50702 9.5L5.92108 10.9131L7.33514 9.5L8.04218 10.207Z" fill="black"/>
<path d="M18.0422 10.207L16.6281 11.6201L18.0432 13.0352L17.3351 13.7422L15.9211 12.3281L14.507 13.7422L13.8 13.0352L15.2141 11.6211L13.8 10.207L14.507 9.5L15.9211 10.9131L17.3351 9.5L18.0422 10.207Z" fill="black"/>
</svg>
