<svg width="30" height="30" viewBox="0 0 30 30" fill="none" xmlns="http://www.w3.org/2000/svg">
<g clip-path="url(#clip0_603_3228)">
<circle cx="15" cy="15" r="15" fill="#BCA7C7"/>
<path d="M17.8 9.64C17.8 11.1 16.62 13.28 15.16 13.28C13.7 13.28 12.52 11.1 12.52 9.64C12.52 8.18 13.7 7 15.16 7C16.62 7 17.8 8.18 17.8 9.64Z" stroke="black" stroke-miterlimit="10"/>
<path d="M10.24 11.7499C10.24 12.9199 9.29002 14.6599 8.13002 14.6599C6.97002 14.6599 6.02002 12.9099 6.02002 11.7499C6.02002 10.5899 6.97002 9.63989 8.13002 9.63989C9.29002 9.63989 10.24 10.5899 10.24 11.7499Z" stroke="black" stroke-miterlimit="10"/>
<path d="M19.07 22.25V15.65C19.07 14.34 18.01 13.28 16.7 13.28H13.63C12.32 13.28 11.26 14.34 11.26 15.65V22.25" stroke="black" stroke-miterlimit="10"/>
<path d="M11.26 22.2499V16.5599C11.26 15.5099 10.41 14.6599 9.36 14.6599H6.9C5.85 14.6599 5 15.5099 5 16.5599V20.2499" stroke="black" stroke-miterlimit="10"/>
<path d="M24.31 11.7499C24.31 12.9199 23.36 14.6599 22.2 14.6599C21.04 14.6599 20.09 12.9099 20.09 11.7499C20.09 10.5899 21.04 9.63989 22.2 9.63989C23.36 9.63989 24.31 10.5899 24.31 11.7499Z" stroke="black" stroke-miterlimit="10"/>
<path d="M25.3299 20.2399V16.5499C25.3299 15.4999 24.4799 14.6499 23.4299 14.6499H20.9699C19.9199 14.6499 19.0699 15.4999 19.0699 16.5499V22.2399" stroke="black" stroke-miterlimit="10"/>
</g>
<defs>
<clipPath id="clip0_603_3228">
<rect width="30" height="30" fill="white"/>
</clipPath>
</defs>
</svg>
