<svg width="512" height="512" viewBox="0 0 512 512" fill="none" xmlns="http://www.w3.org/2000/svg">
<rect width="512" height="512" fill="black"/>
<path fill-rule="evenodd" clip-rule="evenodd" d="M256 56C366.457 56 456 145.543 456 256C456 366.457 366.457 456 256 456C253.9 456 251.81 455.893 249.726 455.829C247.659 455.907 245.585 456 243.5 456C204.691 456 169.077 442.373 141.132 419.672C89.6657 383.485 56 323.694 56 256C56 145.543 145.543 56 256 56ZM366.01 231.073C367.64 239.129 368.5 247.464 368.5 256C368.5 325.036 312.536 381 243.5 381C174.464 381 118.5 325.036 118.5 256C118.5 247.466 119.336 239.127 120.966 231.073C111.402 249.808 106 271.022 106 293.5C106 336.332 125.591 374.581 156.293 399.799C182.995 418.348 215.094 429.616 249.774 430.829C322.801 427.549 381 367.336 381 293.5C381 271.018 375.577 249.81 366.01 231.073ZM256 81C159.35 81 81 159.35 81 256C81 262.452 81.3693 268.821 82.0498 275.092C91.1924 194.014 159.978 131 243.5 131C333.246 131 406 203.754 406 293.5C406 323.454 397.846 351.485 383.71 375.58C413.02 344.29 431 302.256 431 256C431 159.35 352.65 81 256 81ZM238.3 156.122C185.488 158.827 143.5 202.516 143.5 256C143.5 311.228 188.272 356 243.5 356C250.444 356 257.219 355.272 263.764 353.925C230.66 346.13 206 316.483 206 281C206 239.579 239.579 206 281 206C305.976 206 328.038 218.255 341.669 237.03C333.119 192.52 295.092 158.488 248.676 156.122C246.958 156.058 245.233 156 243.5 156C241.759 156 240.026 156.058 238.3 156.122ZM281 231C253.386 231 231 253.386 231 281C231 308.614 253.386 331 281 331C308.614 331 331 308.614 331 281C331 253.386 308.614 231 281 231Z" fill="white"/>
</svg>
